<?xml version="1.0" standalone="no"?>
<!DOCTYPE svg PUBLIC "-//W3C//DTD SVG 20010904//EN"
 "http://www.w3.org/TR/2001/REC-SVG-20010904/DTD/svg10.dtd">
<svg version="1.0" xmlns="http://www.w3.org/2000/svg"
 width="512.000000pt" height="512.000000pt" viewBox="0 0 512.000000 512.000000"
 preserveAspectRatio="xMidYMid meet">

<g transform="translate(0.000000,512.000000) scale(0.100000,-0.100000)"
fill="#000000" stroke="none">
<path d="M1632 4943 c-39 -35 -496 -747 -500 -781 -4 -27 1 -37 28 -60 107
-91 122 -109 156 -177 166 -337 -183 -695 -523 -536 -68 32 -102 38 -133 21
-10 -5 -76 -109 -146 -230 l-129 -220 -88 0 c-80 0 -90 -2 -112 -25 l-25 -24
0 -431 0 -431 23 -23 c17 -17 39 -24 91 -29 142 -13 259 -95 324 -225 35 -72
37 -81 37 -172 0 -91 -2 -100 -37 -172 -65 -130 -182 -212 -324 -225 -52 -5
-74 -12 -91 -29 l-23 -23 0 -471 0 -471 25 -24 24 -25 2351 0 2351 0 24 25 25
24 0 471 0 471 -23 23 c-17 17 -39 24 -91 29 -142 13 -259 95 -324 225 -35 72
-37 81 -37 172 0 91 2 100 37 172 65 130 182 212 324 225 52 5 74 12 91 29
l23 23 0 431 0 431 -25 24 c-22 23 -31 25 -127 25 l-103 0 -1500 1000 c-1043
695 -1508 1000 -1526 1000 -15 0 -36 -8 -47 -17z m740 -622 c4 -4 -24 -54 -62
-111 -45 -67 -70 -115 -70 -133 0 -53 62 -91 115 -71 9 4 49 55 88 114 l72
107 950 -634 950 -633 -539 0 -538 0 -377 240 c-255 162 -386 240 -405 240
-54 0 -93 -69 -67 -119 6 -10 130 -94 276 -187 l267 -169 -616 -3 c-339 -1
-892 -1 -1230 0 l-614 3 81 136 80 137 56 -20 c188 -65 418 -10 564 136 111
111 162 235 162 396 0 153 -46 273 -146 381 l-49 53 191 292 191 293 332 -221
c182 -121 334 -223 338 -227z m1468 -1656 c0 -131 1 -137 25 -160 32 -33 78
-33 110 0 24 23 25 29 25 160 l0 135 400 0 400 0 0 -323 0 -322 -52 -13 c-187
-43 -338 -186 -404 -382 -26 -76 -26 -244 0 -320 66 -196 217 -339 404 -382
l52 -13 0 -362 0 -363 -400 0 -400 0 0 135 c0 131 -1 137 -25 160 -32 33 -78
33 -110 0 -24 -23 -25 -29 -25 -160 l0 -135 -1760 0 -1760 0 0 363 0 362 53
13 c186 43 337 186 403 382 26 76 26 244 0 320 -66 196 -217 339 -403 382
l-53 13 0 322 0 323 1760 0 1760 0 0 -135z"/>
<path d="M2119 3910 c-29 -17 -199 -284 -199 -313 0 -55 69 -94 119 -68 30 16
201 284 201 314 0 55 -72 95 -121 67z"/>
<path d="M2665 3735 c-30 -29 -33 -74 -7 -103 9 -11 220 -149 468 -306 305
-194 459 -286 478 -286 60 0 98 82 59 128 -10 11 -221 149 -469 306 -305 194
-459 286 -478 286 -15 0 -37 -11 -51 -25z"/>
<path d="M1799 3430 c-29 -17 -199 -284 -199 -313 0 -55 69 -94 119 -68 30 16
201 284 201 314 0 55 -72 95 -121 67z"/>
<path d="M985 2455 l-25 -24 0 -551 0 -551 25 -24 24 -25 1191 0 1191 0 24 25
25 24 0 551 0 551 -25 24 -24 25 -1191 0 -1191 0 -24 -25z m2295 -575 l0 -440
-1080 0 -1080 0 0 440 0 440 1080 0 1080 0 0 -440z"/>
<path d="M3865 2295 c-24 -23 -25 -28 -25 -175 0 -147 1 -152 25 -175 15 -16
36 -25 55 -25 19 0 40 9 55 25 24 23 25 28 25 175 0 147 -1 152 -25 175 -15
16 -36 25 -55 25 -19 0 -40 -9 -55 -25z"/>
<path d="M3865 1735 c-24 -23 -25 -28 -25 -175 0 -147 1 -152 25 -175 15 -16
36 -25 55 -25 19 0 40 9 55 25 24 23 25 28 25 175 0 147 -1 152 -25 175 -15
16 -36 25 -55 25 -19 0 -40 -9 -55 -25z"/>
<path d="M3865 1175 c-24 -23 -25 -28 -25 -175 0 -147 1 -152 25 -175 15 -16
36 -25 55 -25 19 0 40 9 55 25 24 23 25 28 25 175 0 147 -1 152 -25 175 -15
16 -36 25 -55 25 -19 0 -40 -9 -55 -25z"/>
<path d="M985 1095 c-16 -15 -25 -36 -25 -55 0 -19 9 -40 25 -55 l24 -25 1191
0 1191 0 24 25 c16 15 25 36 25 55 0 19 -9 40 -25 55 l-24 25 -1191 0 -1191 0
-24 -25z"/>
<path d="M985 775 c-16 -15 -25 -36 -25 -55 0 -19 9 -40 25 -55 l24 -25 1191
0 1191 0 24 25 c16 15 25 36 25 55 0 19 -9 40 -25 55 l-24 25 -1191 0 -1191 0
-24 -25z"/>
</g>
</svg>
